<?xml version="1.0" encoding="UTF-8"?>
<svg width="131px" height="28px" viewBox="0 0 131 28" version="1.1" xmlns="http://www.w3.org/2000/svg" xmlns:xlink="http://www.w3.org/1999/xlink">
    <!-- Generator: Sketch 63.1 (92452) - https://sketch.com -->
    <title>mipOS-color</title>
    <desc>Created with Sketch.</desc>
    <g id="Mexico---Desktop" stroke="none" stroke-width="1" fill="none" fill-rule="evenodd">
        <g id="LP-03-Form-Send" transform="translate(-50.000000, -34.000000)" fill-rule="nonzero">
            <g id="mipOS-color" transform="translate(50.000000, 34.000000)">
                <path d="M70.2972738,11.935 L70.2972738,21.2482812 L65.8131146,21.2482812 L65.8131146,12.5529687 C65.8131146,11.8310937 65.7028983,11.2794792 65.4824656,10.898125 C65.2620329,10.5167708 64.854805,10.3264583 64.2607818,10.3271875 C63.8589215,10.3271875 63.4087522,10.4394792 62.9102737,10.6640625 C62.3377346,10.928337 61.7808696,11.2265292 61.2425358,11.5571094 L61.2425358,21.2510156 L56.7583766,21.2510156 L56.7583766,12.5557031 C56.7583766,11.8338281 56.6481602,11.2822135 56.4277275,10.9008594 C56.2072949,10.5195052 55.8000669,10.3291927 55.2060438,10.3299219 C54.8041835,10.3299219 54.3491832,10.4422135 53.8410429,10.6667969 C53.2628672,10.9287106 52.7012208,11.2269674 52.159349,11.5598437 L52.159349,21.25375 L47.6462044,21.25375 L47.6462044,7.04429687 L50.4347137,7.04429687 L51.2108801,8.53835937 C52.0431092,7.95755282 52.9405129,7.48020672 53.8839844,7.11648438 C54.8226125,6.75554687 55.7039855,6.57507813 56.5281031,6.57507813 C58.406433,6.57507813 59.7191884,7.18994792 60.4663694,8.4196875 C61.2778594,7.87967387 62.1455558,7.43288787 63.0535907,7.0875 C63.9535716,6.74588542 64.8063169,6.57507813 65.6118266,6.57507813 C67.2790278,6.57507813 68.476736,7.03864583 69.2049511,7.96578125 C69.9331662,8.89291667 70.2972738,10.215625 70.2972738,11.9339063" id="Path" fill="#4453E2"></path>
                <path d="M77.9435328,2.56375 C77.9435328,3.24734375 77.6991245,3.83796875 77.2103079,4.335625 C76.7475341,4.82240148 76.1078085,5.09257092 75.4427311,5.08210938 C74.7717712,5.08210938 74.1920618,4.83328125 73.703603,4.335625 C73.2151442,3.83796875 72.9707359,3.24734375 72.9703781,2.56375 C72.9601655,1.88589148 73.2255426,1.23390603 73.703603,0.76234375 C74.1927775,0.2646875 74.7724869,0.015859375 75.4427311,0.015859375 C76.8235177,0.0167643519 77.9426446,1.15696389 77.9435328,2.56375 M77.7132594,21.2482813 L73.2001147,21.2482813 L73.2001147,7.04429687 L77.7132594,7.04429687 L77.7132594,21.2482813 Z" id="Shape" fill="#4453E2"></path>
                <path d="M94.7878469,14.0142188 C94.7878469,16.3774479 94.1410416,18.2273437 92.8474309,19.5639063 C91.5538202,20.9004688 89.7858856,21.5692969 87.5436271,21.5703906 C86.8537014,21.5703906 86.1256652,21.4141667 85.3595184,21.1017188 L85.3595184,24.609375 C85.359222,26.4738991 83.8755782,27.9852344 82.0455133,27.9852344 L80.8753592,27.9852344 L80.8753592,7.07382812 L83.1453507,7.07382812 L83.9215172,7.95210937 C85.1288871,7.05450521 86.3936913,6.60552083 87.7159296,6.60515625 C89.8812514,6.60515625 91.6010558,7.249375 92.8753428,8.5378125 C94.1496299,9.82625 94.7869523,11.6517187 94.7873102,14.0142187 M90.1592971,14.04375 C90.1592971,12.8723437 89.900575,11.9546875 89.3831307,11.2907812 C88.8656865,10.626875 88.1471331,10.2951042 87.2274708,10.2954684 C86.6327319,10.2954684 86.0099022,10.5198698 85.3589816,10.9686719 L85.3589816,17.294375 C86.0292259,17.7045312 86.690345,17.9096094 87.3423391,17.9096094 C88.1850647,17.9096094 88.8649708,17.5532292 89.3820572,16.8404687 C89.8991436,16.1277083 90.1578658,15.1954687 90.1582236,14.04375" id="Shape" fill="#4453E2"></path>
                <path d="M97.3611123,11.3788281 C97.3611123,9.40716146 97.7547421,7.63036458 98.5420017,6.0484375 C99.3292614,4.46651042 100.416753,3.21708333 101.804477,2.30015625 C103.193633,1.3825 104.760279,0.904166667 106.504417,0.86515625 C108.229231,0.86515625 109.776733,1.30429687 111.146923,2.18257812 C112.517112,3.06085938 113.585459,4.28130208 114.351964,5.84390625 C115.117753,7.40578125 115.501005,9.17255208 115.501722,11.1442187 C115.502437,13.1158854 115.108807,14.8976042 114.320832,16.489375 C113.533572,18.0807813 112.442144,19.3351302 111.046547,20.2524219 C109.650951,21.1697135 108.078757,21.6376562 106.329967,21.65625 C104.624119,21.65625 103.086279,21.2169271 101.716447,20.3382813 C100.346615,19.4596354 99.2780895,18.2401042 98.5108692,16.6796875 C97.7443646,15.1178125 97.3611123,13.3508594 97.3611123,11.3788281 M106.531255,2.5046875 C105.13208,2.5046875 103.88159,2.88549479 102.779784,3.64710937 C101.677979,4.40872396 100.815572,5.46309896 100.192563,6.81023437 C99.5695545,8.15736979 99.2582291,9.67039062 99.2585866,11.3492969 C99.2585866,13.0085156 99.5604294,14.4971094 100.164114,15.8150781 C100.767799,17.1330469 101.6014,18.1677344 102.664916,18.9191406 C103.728074,19.6716406 104.930614,20.047526 106.272533,20.0467979 C107.670635,20.0467979 108.920946,19.6661719 110.023468,18.9049219 C111.125989,18.1436719 111.988396,17.0892969 112.610689,15.7417969 C113.23334,14.395026 113.544665,12.8721615 113.544665,11.1732031 C113.544665,9.51398437 113.242823,8.02520833 112.639138,6.706875 C112.035453,5.38854167 111.201852,4.35877604 110.138336,3.61757812 C109.07482,2.87565104 107.87246,2.50450521 106.531255,2.50414062" id="Shape" fill="#6579ED"></path>
                <path d="M123.426562,21.6289062 C122.603518,21.6289062 121.683677,21.511875 120.667039,21.2778125 C119.6504,21.04375 118.826819,20.750625 118.196296,20.3984375 L118.62571,18.9924219 C119.238699,19.3052344 119.966914,19.57375 120.810356,19.7979687 C121.654829,20.0228497 122.524198,20.1360712 123.39704,20.1348438 C125.007344,20.1348438 126.257834,19.8028906 127.148511,19.1389844 C128.039188,18.4750781 128.484706,17.6161198 128.485063,16.5621094 C128.485063,15.8201823 128.288248,15.1807031 127.894619,14.6436719 C127.500989,14.1066406 126.935772,13.6144531 126.198969,13.1671094 C125.461092,12.7179427 124.450179,12.2199219 123.16623,11.6730469 C119.639665,10.1505469 117.876561,8.16903646 117.87684,5.72851563 C117.871567,4.84717433 118.13799,3.98637104 118.638593,3.26757813 C119.146375,2.52528646 119.860276,1.93958333 120.780297,1.51046875 C121.700317,1.08135417 122.763833,0.866614583 123.970845,0.866185863 C124.847668,0.863165217 125.721454,0.971367995 126.572023,1.18835938 C127.341445,1.37963336 128.088447,1.65465192 128.800146,2.00867188 L128.167834,3.38515625 C127.542639,3.09750127 126.899222,2.85286441 126.24191,2.65289063 C125.647529,2.47716146 124.909831,2.38929688 124.028816,2.38929688 C122.648607,2.38929688 121.556284,2.69190104 120.751848,3.29710938 C119.947412,3.90231771 119.544836,4.71278646 119.54412,5.72851563 C119.54412,6.47007813 119.740935,7.10445313 120.134565,7.63164063 C120.528195,8.15882813 121.079097,8.63716146 121.787273,9.06664063 C122.496523,9.49648438 123.541073,10.0433594 124.920924,10.7072656 C126.204158,11.3128385 127.21024,11.8742969 127.93917,12.3916406 C128.668101,12.9089844 129.223656,13.4994271 129.605835,14.1629688 C129.989087,14.8272396 130.180892,15.6278646 130.18125,16.5648438 C130.192739,17.5033196 129.910744,18.4211638 129.376098,19.1854688 C128.83933,19.9576563 128.058512,20.558125 127.033643,20.986875 C126.008774,21.415625 124.806235,21.6303646 123.426026,21.6310938" id="Path" fill="#6579ED"></path>
                <path d="M30.4503073,1.67835938 C32.0306755,1.67835938 33.3118171,2.98362422 33.3118171,4.59375 L33.3118171,4.59375 L33.3118171,22.9490625 C33.3118171,23.7222219 33.0103203,24.4637067 32.4736677,25.0103617 C31.9370151,25.5570166 31.2091775,25.8639063 30.4503073,25.8639063 L30.4503073,25.8639063 L10.6478652,25.8639063 C9.06779346,25.8639063 7.78689216,24.5588863 7.78689216,22.9490625 L7.78689216,22.9490625 L7.78689216,4.59320313 C7.78689216,3.82004375 8.08811005,3.07850133 8.624662,2.53174381 C9.16121395,1.98498628 9.88899499,1.6778125 10.6478652,1.6778125 L10.6478652,1.6778125 Z M15.7326677,9.99359375 L11.6677243,9.99359375 L11.6677243,17.5492188 L15.7326677,17.5492188 L15.7326677,9.99359375 Z M29.4304483,9.99359375 L25.3655048,9.99359375 L25.3655048,17.5492188 L29.4304483,17.5492188 L29.4304483,9.99359375 Z" id="Combined-Shape" fill="#4453E2"></path>
                <path d="M2.70423678,19.8165625 L1.24369127,19.8165625 C0.578076973,19.8165625 0.0384068777,19.2669756 0.0381105223,18.5888281 L0.0381105223,8.98953125 C0.0384068777,8.31138382 0.578076973,7.76179688 1.24369127,7.76179688 L2.70423678,7.76179688 C3.36976419,7.76179688 3.90928076,8.31147228 3.90928076,8.98953125 L3.90928076,18.5888281 C3.90928076,19.2668871 3.36976419,19.8165625 2.70423678,19.8165625" id="Path" fill="#4453E2"></path>
                <path d="M39.855018,19.7804688 L38.3939358,19.7804688 C37.7284083,19.7804688 37.1888918,19.2307933 37.1888918,18.5527344 L37.1888918,8.9534375 C37.1888918,8.27537853 37.7284083,7.72570312 38.3939358,7.72570312 L39.855018,7.72570312 C40.5205454,7.72570312 41.060062,8.27537853 41.060062,8.9534375 L41.060062,18.5527344 C41.060062,19.2307933 40.5205454,19.7804688 39.855018,19.7804688" id="Path" fill="#4453E2"></path>
            </g>
        </g>
    </g>
</svg>